{
  "accessors": [
    {
      "bufferView": 2,
      "componentType": 5126,
      "count": 4840,
      "max": [
        0.22528257966041565,
        0.39306381344795227,
        0.28615444898605347
      ],
      "min": [
        -0.18857252597808838,
        -0.41541042923927307,
        0.04996413365006447
      ],
      "type": "VEC3"
    },
    {
      "bufferView": 2,
      "byteOffset": 58080,
      "componentType": 5126,
      "count": 4840,
      "max": [
        0.9504433274269104,
        0.8497009873390198,
        0.9997866749763489
      ],
      "min": [
        -0.9623880982398987,
        -0.9985100030899048,
        -0.999788224697113
      ],
      "type": "VEC3"
    },
    {
      "bufferView": 1,
      "componentType": 5126,
      "count": 4840,
      "max": [
        0.9766757488250732,
        1.385493278503418
      ],
      "min": [
        -0.04139957204461098,
        0.09416309744119644
      ],
      "type": "VEC2"
    },
    {
      "bufferView": 0,
      "componentType": 5125,
      "count": 24768,
      "type": "SCALAR"
    },
    {
      "bufferView": 2,
      "byteOffset": 116160,
      "componentType": 5126,
      "count": 32515,
      "max": [
        0.23607656359672546,
        0.3930637538433075,
        0.28307485580444336
      ],
      "min": [
        -0.2118583768606186,
        -0.40588128566741943,
        0.0036983087193220854
      ],
      "type": "VEC3"
    },
    {
      "bufferView": 2,
      "byteOffset": 506340,
      "componentType": 5126,
      "count": 32515,
      "max": [
        0.9999956488609314,
        0.9999651908874512,
        0.9999997615814209
      ],
      "min": [
        -0.9999954104423523,
        -0.9999654293060303,
        -0.9999997615814209
      ],
      "type": "VEC3"
    },
    {
      "bufferView": 1,
      "byteOffset": 38720,
      "componentType": 5126,
      "count": 32515,
      "max": [
        0.9997454285621643,
        1.0000001192092896
      ],
      "min": [
        -0.01251441240310669,
        0.0
      ],
      "type": "VEC2"
    },
    {
      "bufferView": 0,
      "byteOffset": 99072,
      "componentType": 5125,
      "count": 109872,
      "type": "SCALAR"
    },
    {
      "bufferView": 2,
      "byteOffset": 896520,
      "componentType": 5126,
      "count": 1897,
      "max": [
        0.22739911079406738,
        0.13270986080169678,
        0.26997894048690796
      ],
      "min": [
        -0.011910364031791687,
        -0.1999024748802185,
        0.1354701966047287
      ],
      "type": "VEC3"
    },
    {
      "bufferView": 2,
      "byteOffset": 919284,
      "componentType": 5126,
      "count": 1897,
      "max": [
        0.9997760653495789,
        0.9972097277641296,
        0.9999784231185913
      ],
      "min": [
        -0.9996219873428345,
        -0.9967136979103088,
        -0.9999560713768005
      ],
      "type": "VEC3"
    },
    {
      "bufferView": 1,
      "byteOffset": 298840,
      "componentType": 5126,
      "count": 1897,
      "max": [
        0.8752585053443909,
        0.7372860908508301
      ],
      "min": [
        0.0,
        0.0
      ],
      "type": "VEC2"
    },
    {
      "bufferView": 0,
      "byteOffset": 538560,
      "componentType": 5125,
      "count": 7680,
      "type": "SCALAR"
    },
    {
      "bufferView": 2,
      "byteOffset": 942048,
      "componentType": 5126,
      "count": 352,
      "max": [
        0.00562139181420207,
        -0.07029271870851517,
        0.2760961651802063
      ],
      "min": [
        -0.0020668411161750555,
        -0.07863655686378479,
        0.2689429819583893
      ],
      "type": "VEC3"
    },
    {
      "bufferView": 2,
      "byteOffset": 946272,
      "componentType": 5126,
      "count": 352,
      "max": [
        0.9041715860366821,
        0.9583556652069092,
        0.9998860359191895
      ],
      "min": [
        -0.8119708299636841,
        -0.7071772813796997,
        -0.9463999271392822
      ],
      "type": "VEC3"
    },
    {
      "bufferView": 1,
      "byteOffset": 314016,
      "componentType": 5126,
      "count": 352,
      "max": [
        0.49000000953674316,
        0.49000000953674316
      ],
      "min": [
        0.01000000536441803,
        0.01000000536441803
      ],
      "type": "VEC2"
    },
    {
      "bufferView": 0,
      "byteOffset": 569280,
      "componentType": 5125,
      "count": 1524,
      "type": "SCALAR"
    }
  ],
  "asset": {
    "extras": {
      "author": "Aditya3D (https://sketchfab.com/Adityakmaurya)",
      "license": "CC-BY-4.0 (http://creativecommons.org/licenses/by/4.0/)",
      "source": "https://sketchfab.com/3d-models/logitech-g603-43861f9af252411d987afafbc84357a4",
      "title": "Logitech G603"
    },
    "generator": "Sketchfab-11.60.0",
    "version": "2.0"
  },
  "bufferViews": [
    {
      "buffer": 0,
      "byteLength": 575376,
      "name": "floatBufferViews",
      "target": 34963
    },
    {
      "buffer": 0,
      "byteLength": 316832,
      "byteOffset": 575376,
      "byteStride": 8,
      "name": "floatBufferViews",
      "target": 34962
    },
    {
      "buffer": 0,
      "byteLength": 950496,
      "byteOffset": 892208,
      "byteStride": 12,
      "name": "floatBufferViews",
      "target": 34962
    }
  ],
  "buffers": [
    {
      "byteLength": 1842704,
      "uri": "scene.bin"
    }
  ],
  "materials": [
    {
      "doubleSided": true,
      "name": "matt_plastic_grey",
      "pbrMetallicRoughness": {
        "baseColorFactor": [
          0.8,
          0.8,
          0.8,
          1.0
        ],
        "metallicFactor": 0.0,
        "roughnessFactor": 0.8040408205773457
      }
    },
    {
      "doubleSided": true,
      "name": "matt_plastic_black",
      "pbrMetallicRoughness": {
        "baseColorFactor": [
          0.00309542,
          0.00309542,
          0.00309542,
          1.0
        ],
        "metallicFactor": 0.0,
        "roughnessFactor": 0.9994114318077816
      }
    },
    {
      "doubleSided": true,
      "name": "glossy_plastic_black",
      "pbrMetallicRoughness": {
        "baseColorFactor": [
          0.00719368,
          0.00719368,
          0.00719368,
          1.0
        ],
        "metallicFactor": 0.0,
        "roughnessFactor": 0.9981323288046545
      }
    },
    {
      "doubleSided": true,
      "name": "material",
      "pbrMetallicRoughness": {
        "baseColorFactor": [
          0.8,
          0.8,
          0.8,
          1.0
        ],
        "metallicFactor": 0.0,
        "roughnessFactor": 0.8040408205773457
      }
    }
  ],
  "meshes": [
    {
      "name": "top_panel_matt plastic grey_0",
      "primitives": [
        {
          "attributes": {
            "NORMAL": 1,
            "POSITION": 0,
            "TEXCOORD_0": 2
          },
          "indices": 3,
          "material": 0,
          "mode": 4
        }
      ]
    },
    {
      "name": "top_panel_matt plastic black_0",
      "primitives": [
        {
          "attributes": {
            "NORMAL": 5,
            "POSITION": 4,
            "TEXCOORD_0": 6
          },
          "indices": 7,
          "material": 1,
          "mode": 4
        }
      ]
    },
    {
      "name": "top_panel_glossy plastic black_0",
      "primitives": [
        {
          "attributes": {
            "NORMAL": 9,
            "POSITION": 8,
            "TEXCOORD_0": 10
          },
          "indices": 11,
          "material": 2,
          "mode": 4
        }
      ]
    },
    {
      "name": "top_panel_led_0",
      "primitives": [
        {
          "attributes": {
            "NORMAL": 13,
            "POSITION": 12,
            "TEXCOORD_0": 14
          },
          "indices": 15,
          "material": 3,
          "mode": 4
        }
      ]
    }
  ],
  "nodes": [
    {
      "children": [
        1
      ],
      "matrix": [
        1.0,
        0.0,
        0.0,
        0.0,
        0.0,
        2.220446049250313e-16,
        -1.0,
        0.0,
        0.0,
        1.0,
        2.220446049250313e-16,
        0.0,
        0.0,
        0.0,
        0.0,
        1.0
      ],
      "name": "Sketchfab_model"
    },
    {
      "children": [
        2
      ],
      "matrix": [
        0.009999999776482582,
        0.0,
        0.0,
        0.0,
        0.0,
        0.0,
        0.009999999776482582,
        0.0,
        0.0,
        -0.009999999776482582,
        0.0,
        0.0,
        0.0,
        0.0,
        0.0,
        1.0
      ],
      "name": "Logitech G603.fbx"
    },
    {
      "children": [
        3
      ],
      "name": "RootNode"
    },
    {
      "children": [
        4,
        5,
        6,
        7
      ],
      "matrix": [
        -99.95555980818,
        -1.214306433183765e-14,
        -2.9809500890393257,
        0.0,
        -2.980950089039269,
        1.9470718903846773e-05,
        99.95555980817812,
        0.0,
        5.804124000863276e-07,
        99.9999999999981,
        -1.946206606984191e-05,
        0.0,
        0.0,
        0.0,
        0.0,
        1.0
      ],
      "name": "top_panel"
    },
    {
      "mesh": 0,
      "name": "top_panel_matt plastic grey_0"
    },
    {
      "mesh": 1,
      "name": "top_panel_matt plastic black_0"
    },
    {
      "mesh": 2,
      "name": "top_panel_glossy plastic black_0"
    },
    {
      "mesh": 3,
      "name": "top_panel_led_0"
    }
  ],
  "scene": 0,
  "scenes": [
    {
      "name": "Sketchfab_Scene",
      "nodes": [
        0
      ]
    }
  ]
}
