<?xml version="1.0" standalone="no"?>
<!DOCTYPE svg PUBLIC "-//W3C//DTD SVG 20010904//EN"
 "http://www.w3.org/TR/2001/REC-SVG-20010904/DTD/svg10.dtd">
<svg version="1.0" xmlns="http://www.w3.org/2000/svg"
 width="499.000000pt" height="499.000000pt" viewBox="0 0 499.000000 499.000000"
 preserveAspectRatio="xMidYMid meet">
<metadata>
Created by potrace 1.14, written by Peter Selinger 2001-2017
</metadata>
<g transform="translate(0.000000,499.000000) scale(0.100000,-0.100000)"
fill="#000000" stroke="none">
<path d="M2338 4807 c-26 -40 -62 -92 -79 -117 -46 -66 -295 -431 -644 -946
-88 -129 -184 -270 -214 -312 -54 -75 -91 -148 -331 -637 -156 -319 -148 -297
-155 -405 -4 -52 -8 -97 -10 -100 -2 -3 -6 -44 -10 -91 -3 -46 -7 -100 -10
-119 -2 -19 -7 -64 -10 -100 -6 -64 -23 -220 -29 -271 -2 -15 12 -78 31 -140
19 -63 50 -163 68 -224 138 -454 150 -490 180 -520 17 -17 104 -109 195 -204
91 -96 198 -208 237 -250 l73 -76 401 -80 c394 -80 401 -81 467 -69 137 25
228 43 272 53 25 5 61 13 80 16 19 3 64 12 100 20 36 8 116 24 179 35 l113 22
92 95 c50 53 113 119 140 147 26 28 106 110 177 182 l129 132 31 98 c54 176
119 387 150 489 16 55 39 130 51 166 21 66 21 67 4 170 -10 57 -24 142 -31
189 -8 47 -16 99 -19 115 -3 17 -12 75 -21 130 -51 322 -19 235 -320 860 -37
76 -84 175 -106 220 -21 44 -67 119 -101 167 -35 47 -120 167 -190 265 -176
249 -331 466 -485 682 -34 47 -87 122 -117 166 -119 170 -221 309 -231 312 -5
1 -31 -30 -57 -70z"/>
</g>
</svg>
