{"asset":{"version":"2.0","generator":"VECTARY"},"nodes":[{"translation":[-0.02105134573748506,0.0551226164342377,0],"scale":[0.0014770015078192848,0.0014770015078192848,0.0014770015078192848],"rotation":[-0.7071067811865476,0,0,0.7071067811865476],"name":"3D Text - c","mesh":0},{"translation":[0.024417985427357018,0.07067210992610957,0],"scale":[0.0014770015078192848,0.0014770015078192848,0.0014770015078192848],"rotation":[-0.010556899530839964,0.7070279710678326,-0.7070279710678326,0.010556899530839964],"name":"3D Text 1 - c","mesh":1},{"translation":[0,0,0],"scale":[0.001,0.001,0.001],"rotation":[-0.7071067811865476,0,0,0.7071067811865476],"name":"Polyhedron - baked","mesh":2}],"materials":[{"pbrMetallicRoughness":{"baseColorFactor":[0.0004925037871914326,0.3837746464879752,0.06190747560545576,1],"metallicFactor":0,"roughnessFactor":0.2},"name":"Historic Shade","emissiveFactor":[0,0,0],"alphaMode":"OPAQUE","doubleSided":false},{"pbrMetallicRoughness":{"baseColorFactor":[0.0004925037871914326,0.3837746464879752,0.06190747560545576,1],"metallicFactor":0,"roughnessFactor":0.2},"name":"Historic Shade 1","emissiveFactor":[0,0,0],"alphaMode":"OPAQUE","doubleSided":false},{"pbrMetallicRoughness":{"baseColorFactor":[1,1,1,1],"baseColorTexture":{"index":0,"extensions":{"KHR_texture_transform":{"offset":[0,0],"scale":[1,1],"rotation":0}},"texCoord":0},"metallicRoughnessTexture":{"index":2,"extensions":{"KHR_texture_transform":{"offset":[0,0],"scale":[1,1],"rotation":0}},"texCoord":0},"metallicFactor":0,"roughnessFactor":1},"name":"Wood 1","normalTexture":{"index":1,"scale":1,"extensions":{"KHR_texture_transform":{"offset":[0,0],"scale":[1,1],"rotation":0}},"texCoord":0},"emissiveFactor":[0,0,0],"alphaMode":"OPAQUE","doubleSided":false}],"meshes":[{"primitives":[{"mode":4,"attributes":{"POSITION":1,"NORMAL":2},"material":0,"indices":0}]},{"primitives":[{"mode":4,"attributes":{"POSITION":4,"NORMAL":5},"material":1,"indices":3}]},{"primitives":[{"mode":4,"attributes":{"POSITION":7,"NORMAL":8,"TEXCOORD_0":9},"material":2,"indices":6}]}],"accessors":[{"bufferView":0,"byteOffset":0,"componentType":5125,"count":792,"type":"SCALAR"},{"bufferView":1,"byteOffset":0,"componentType":5126,"count":530,"max":[22.1435546875,1.6683420332960796e-15,27.24609375],"min":[2.8076171875,-15,-0.48828125],"type":"VEC3"},{"bufferView":2,"byteOffset":0,"componentType":5126,"count":530,"type":"VEC3"},{"bufferView":3,"byteOffset":0,"componentType":5125,"count":792,"type":"SCALAR"},{"bufferView":4,"byteOffset":0,"componentType":5126,"count":530,"max":[22.1435546875,1.6683420332960796e-15,27.24609375],"min":[2.8076171875,-15,-0.48828125],"type":"VEC3"},{"bufferView":5,"byteOffset":0,"componentType":5126,"count":530,"type":"VEC3"},{"bufferView":6,"byteOffset":0,"componentType":5125,"count":240,"type":"SCALAR"},{"bufferView":7,"byteOffset":0,"componentType":5126,"count":114,"max":[50,50,150],"min":[-50,-26.286556243896484,0],"type":"VEC3"},{"bufferView":8,"byteOffset":0,"componentType":5126,"count":114,"type":"VEC3"},{"bufferView":9,"byteOffset":0,"componentType":5126,"count":114,"type":"VEC2"}],"bufferViews":[{"buffer":0,"byteOffset":0,"byteLength":3168,"target":34963},{"buffer":0,"byteOffset":3168,"byteLength":6360,"target":34962},{"buffer":0,"byteOffset":9528,"byteLength":6360,"target":34962},{"buffer":0,"byteOffset":15888,"byteLength":3168,"target":34963},{"buffer":0,"byteOffset":19056,"byteLength":6360,"target":34962},{"buffer":0,"byteOffset":25416,"byteLength":6360,"target":34962},{"buffer":0,"byteOffset":31776,"byteLength":960,"target":34963},{"buffer":0,"byteOffset":32736,"byteLength":1368,"target":34962},{"buffer":0,"byteOffset":34104,"byteLength":1368,"target":34962},{"buffer":0,"byteOffset":35472,"byteLength":912,"target":34962}],"textures":[{"sampler":0,"source":0},{"sampler":0,"source":1},{"sampler":0,"source":2}],"images":[{"uri":"Wood_011_Color.jpg","mimeType":"image/jpeg"},{"uri":"Wood_011_NormalMap.jpg","mimeType":"image/jpeg"},{"uri":"metallicTexture&Wood_011_Roughness_1.jpg","mimeType":"image/jpeg"}],"samplers":[{"wrapS":10497,"wrapT":10497}],"scene":0,"scenes":[{"nodes":[0,1,2],"name":"Project Name"}],"extensionsUsed":["KHR_texture_transform"],"buffers":[{"byteLength":36384,"uri":"ProjectName.bin"}]}